<svg width="100%" height="100%" viewBox="1.6000003814697266 10.599987792968705 1828.1199703216553 901.6000061035156" xmlns="http://www.w3.org/2000/svg" xmlns:xlink="http://www.w3.org/1999/xlink">
<g id="graph0" class="graph" transform="scale(1 1) rotate(0) translate(4 910.8)">

<!-- Knygos kopija -->
<g id="node1" class="node">
<rect x="461.80999755859375" y="-528" width="337.66998291015625" height="160.79998779296875" fill="white"/><title>Knygos kopija</title>
<text text-anchor="start" x="551.4" y="-508" font-family="Verdana" font-weight="bold" font-size="20.00">Knygos kopija</text>
<text text-anchor="start" x="469.81" y="-478.6" font-family="Verdana" font-size="16.00" fill="blue">Vienodų knygų egzemplioriai</text>
<text text-anchor="start" x="709.93" y="-478.6" font-family="Verdana" font-size="16.00"> N=99999</text>
<polygon fill="none" stroke="lightgray" points="463.81,-434.6 463.81,-467.8 797.48,-467.8 797.48,-434.6 463.81,-434.6"/>
<text text-anchor="start" x="470.81" y="-446.4" font-family="Verdana" font-size="16.00">ID 🔑</text>
<text text-anchor="start" x="624.7" y="-447" font-family="Verdana" font-size="14.00" fill="blue"> Kopijos identifikatorius</text>
<polygon fill="none" stroke="lightgray" points="463.81,-401.4 463.81,-434.6 797.48,-434.6 797.48,-401.4 463.81,-401.4"/>
<text text-anchor="start" x="470.81" y="-413.2" font-family="Verdana" font-size="16.00">BookID</text>
<text text-anchor="start" x="624.72" y="-413.8" font-family="Verdana" font-size="14.00" fill="blue"> Knygos identifikatorius</text>
<polygon fill="none" stroke="lightgray" points="463.81,-368.2 463.81,-401.4 797.48,-401.4 797.48,-368.2 463.81,-368.2"/>
<text text-anchor="start" x="470.81" y="-380" font-family="Verdana" font-size="16.00">Status</text>
<text text-anchor="start" x="733.22" y="-380.6" font-family="Verdana" font-size="14.00" fill="blue"> Būsena</text>
<polygon fill="black" stroke="black" points="461.81,-467.8 461.81,-467.8 799.48,-467.8 799.48,-467.8 461.81,-467.8"/>
<polygon fill="none" stroke="black" stroke-width="2" points="462.81,-367.2 462.81,-528 798.48,-528 798.48,-367.2 462.81,-367.2"/>
</g>

<!-- Knyga -->
<g id="node5" class="node">
<rect x="878.6799926757812" y="-495" width="473.94000244140625" height="326.79998779296875" fill="white"/><title>Knyga</title>
<text text-anchor="start" x="1080.64" y="-475" font-family="Verdana" font-weight="bold" font-size="20.00">Knyga</text>
<text text-anchor="start" x="886.68" y="-445.6" font-family="Verdana" font-size="16.00" fill="blue">Knygos duomenys, bendri jos egzemplioriams</text>
<text text-anchor="start" x="1263.08" y="-445.6" font-family="Verdana" font-size="16.00"> N=33333</text>
<polygon fill="none" stroke="lightgray" points="880.68,-401.6 880.68,-434.8 1350.62,-434.8 1350.62,-401.6 880.68,-401.6"/>
<text text-anchor="start" x="887.68" y="-413.4" font-family="Verdana" font-size="16.00">ID 🔑</text>
<text text-anchor="start" x="1177.86" y="-414" font-family="Verdana" font-size="14.00" fill="blue"> Knygos identifikatorius</text>
<polygon fill="none" stroke="lightgray" points="880.68,-368.4 880.68,-401.6 1350.62,-401.6 1350.62,-368.4 880.68,-368.4"/>
<text text-anchor="start" x="887.68" y="-380.2" font-family="Verdana" font-size="16.00">ParentID</text>
<text text-anchor="start" x="1164.36" y="-380.8" font-family="Verdana" font-size="14.00" fill="blue"> Viršesnis identifikatorius</text>
<polygon fill="none" stroke="lightgray" points="880.68,-335.2 880.68,-368.4 1350.62,-368.4 1350.62,-335.2 880.68,-335.2"/>
<text text-anchor="start" x="887.68" y="-347" font-family="Verdana" font-size="16.00">AuthorID</text>
<text text-anchor="start" x="1162.4" y="-347.6" font-family="Verdana" font-size="14.00" fill="blue"> Autoriaus identifikatorius</text>
<polygon fill="none" stroke="lightgray" points="880.68,-302 880.68,-335.2 1350.62,-335.2 1350.62,-302 880.68,-302"/>
<text text-anchor="start" x="887.68" y="-313.8" font-family="Verdana" font-size="16.00">Title</text>
<text text-anchor="start" x="1250.57" y="-314.4" font-family="Verdana" font-size="14.00" fill="blue"> Pavadinimas</text>
<polygon fill="none" stroke="lightgray" points="880.68,-268.8 880.68,-302 1350.62,-302 1350.62,-268.8 880.68,-268.8"/>
<text text-anchor="start" x="887.68" y="-280.6" font-family="Verdana" font-size="16.00">ISBN</text>
<text text-anchor="start" x="1257.04" y="-281.2" font-family="Verdana" font-size="14.00" fill="blue"> ISBN kodas</text>
<polygon fill="none" stroke="lightgray" points="880.68,-235.6 880.68,-268.8 1350.62,-268.8 1350.62,-235.6 880.68,-235.6"/>
<text text-anchor="start" x="887.68" y="-247.4" font-family="Verdana" font-size="16.00">GenreID</text>
<text text-anchor="start" x="1187.64" y="-248" font-family="Verdana" font-size="14.00" fill="blue"> Žanro identifikatorius</text>
<polygon fill="none" stroke="lightgray" points="880.68,-202.4 880.68,-235.6 1350.62,-235.6 1350.62,-202.4 880.68,-202.4"/>
<text text-anchor="start" x="887.68" y="-214.2" font-family="Verdana" font-size="16.00">PublisherID</text>
<text text-anchor="start" x="1177.36" y="-214.8" font-family="Verdana" font-size="14.00" fill="blue"> Leidėjo identifikatorius</text>
<polygon fill="none" stroke="lightgray" points="880.68,-169.2 880.68,-202.4 1350.62,-202.4 1350.62,-169.2 880.68,-169.2"/>
<text text-anchor="start" x="887.68" y="-181" font-family="Verdana" font-size="16.00">Year</text>
<text text-anchor="start" x="1239.4" y="-181.6" font-family="Verdana" font-size="14.00" fill="blue"> Leidimo metai</text>
<polygon fill="black" stroke="black" points="878.68,-434.8 878.68,-434.8 1352.62,-434.8 1352.62,-434.8 878.68,-434.8"/>
<polygon fill="none" stroke="black" stroke-width="2" points="879.68,-168.2 879.68,-495 1351.62,-495 1351.62,-168.2 879.68,-168.2"/>
</g>

<!-- Knygos kopija&#45;&gt;Knyga -->
<g id="edge2" class="edge">
<title>Knygos kopija:BookID-&gt;Knyga:ID</title>
<path stroke-width="1" stroke="black" fill="none" marker-end="url(#arrowhead)" d="M799.48,-418L802.813,-418C806.147,-418,812.813,-418,822.68,-418.032C832.547,-418.063,845.613,-418.127,855.48,-418.158C865.347,-418.19,872.013,-418.19,875.347,-418.19L878.68,-418.19" class="edge"/></g>

<!-- Leidėjas -->
<g id="node2" class="node">
<rect x="1434.8800048828125" y="-216.60000610351562" width="371.780029296875" height="194" fill="white"/><title>Leidėjas</title>
<text text-anchor="start" x="1573.87" y="-196.6" font-family="Verdana" font-weight="bold" font-size="20.00">Leidėjas</text>
<text text-anchor="start" x="1442.88" y="-167.2" font-family="Verdana" font-size="16.00" fill="blue">Leidykla, institucija arba organizacija</text>
<text text-anchor="start" x="1747.63" y="-167.2" font-family="Verdana" font-size="16.00"> N=50</text>
<polygon fill="none" stroke="lightgray" points="1436.88,-123.2 1436.88,-156.4 1804.66,-156.4 1804.66,-123.2 1436.88,-123.2"/>
<text text-anchor="start" x="1443.88" y="-135" font-family="Verdana" font-size="16.00">ID 🔑</text>
<text text-anchor="start" x="1631.4" y="-135.6" font-family="Verdana" font-size="14.00" fill="blue"> Leidėjo identifikatorius</text>
<polygon fill="none" stroke="lightgray" points="1436.88,-90 1436.88,-123.2 1804.66,-123.2 1804.66,-90 1436.88,-90"/>
<text text-anchor="start" x="1443.88" y="-101.8" font-family="Verdana" font-size="16.00">Name</text>
<text text-anchor="start" x="1704.61" y="-102.4" font-family="Verdana" font-size="14.00" fill="blue"> Pavadinimas</text>
<polygon fill="none" stroke="lightgray" points="1436.88,-56.8 1436.88,-90 1804.66,-90 1804.66,-56.8 1436.88,-56.8"/>
<text text-anchor="start" x="1443.88" y="-68.6" font-family="Verdana" font-size="16.00">Address</text>
<text text-anchor="start" x="1737.14" y="-69.2" font-family="Verdana" font-size="14.00" fill="blue"> Adresas</text>
<polygon fill="none" stroke="lightgray" points="1436.88,-23.6 1436.88,-56.8 1804.66,-56.8 1804.66,-23.6 1436.88,-23.6"/>
<text text-anchor="start" x="1443.88" y="-35.4" font-family="Verdana" font-size="16.00">Phone</text>
<text text-anchor="start" x="1725.61" y="-36" font-family="Verdana" font-size="14.00" fill="blue"> Telefonas</text>
<polygon fill="black" stroke="black" points="1434.88,-156.4 1434.88,-156.4 1806.66,-156.4 1806.66,-156.4 1434.88,-156.4"/>
<polygon fill="none" stroke="black" stroke-width="2" points="1435.88,-22.6 1435.88,-216.6 1805.66,-216.6 1805.66,-22.6 1435.88,-22.6"/>
</g>

<!-- Žanras -->
<g id="node3" class="node">
<rect x="1496.6300048828125" y="-408.41015625" width="248.280029296875" height="128.61016845703125" fill="white"/><title>Žanras</title>
<text text-anchor="start" x="1582.55" y="-387.4" font-family="Verdana" font-weight="bold" font-size="20.00">Žanras</text>
<text text-anchor="start" x="1504.63" y="-358" font-family="Verdana" font-size="16.00" fill="blue">Knygos teminė grupė</text>
<text text-anchor="start" x="1685.88" y="-358" font-family="Verdana" font-size="16.00"> N=12</text>
<polygon fill="none" stroke="lightgray" points="1498.63,-314 1498.63,-347.2 1742.91,-347.2 1742.91,-314 1498.63,-314"/>
<text text-anchor="start" x="1505.63" y="-325.8" font-family="Verdana" font-size="16.00">ID 🔑</text>
<text text-anchor="start" x="1579.92" y="-326.4" font-family="Verdana" font-size="14.00" fill="blue"> Žanro identifikatorius</text>
<polygon fill="none" stroke="lightgray" points="1498.63,-280.8 1498.63,-314 1742.91,-314 1742.91,-280.8 1498.63,-280.8"/>
<text text-anchor="start" x="1505.63" y="-292.6" font-family="Verdana" font-size="16.00">Name</text>
<text text-anchor="start" x="1596.08" y="-293.2" font-family="Verdana" font-size="14.00" fill="blue"> Žanro pavadinimas</text>
<polygon fill="black" stroke="black" points="1496.63,-347.2 1496.63,-347.2 1744.91,-347.2 1744.91,-347.2 1496.63,-347.2"/>
<polygon fill="none" stroke="black" stroke-width="2" points="1497.63,-279.8 1497.63,-407.4 1743.91,-407.4 1743.91,-279.8 1497.63,-279.8"/>
</g>

<!-- Bibliotekininkas -->
<g id="node4" class="node">
<rect x="486.510009765625" y="-303.79998779296875" width="288.27001953125" height="260.3999938964844" fill="white"/><title>Bibliotekininkas</title>
<text text-anchor="start" x="540.6" y="-283.8" font-family="Verdana" font-weight="bold" font-size="20.00">Bibliotekininkas</text>
<text text-anchor="start" x="494.51" y="-254.4" font-family="Verdana" font-size="16.00" fill="blue">Bibliotekos darbuotojas</text>
<text text-anchor="start" x="715.74" y="-254.4" font-family="Verdana" font-size="16.00"> N=10</text>
<polygon fill="none" stroke="lightgray" points="488.51,-210.4 488.51,-243.6 772.78,-243.6 772.78,-210.4 488.51,-210.4"/>
<text text-anchor="start" x="495.51" y="-222.2" font-family="Verdana" font-size="16.00">ID 🔑</text>
<text text-anchor="start" x="548.7" y="-222.8" font-family="Verdana" font-size="14.00" fill="blue"> Bibliotekininko identifikatorius</text>
<polygon fill="none" stroke="lightgray" points="488.51,-177.2 488.51,-210.4 772.78,-210.4 772.78,-177.2 488.51,-177.2"/>
<text text-anchor="start" x="495.51" y="-189" font-family="Verdana" font-size="16.00">Name</text>
<text text-anchor="start" x="712.48" y="-189.6" font-family="Verdana" font-size="14.00" fill="blue"> Vardas</text>
<polygon fill="none" stroke="lightgray" points="488.51,-144 488.51,-177.2 772.78,-177.2 772.78,-144 488.51,-144"/>
<text text-anchor="start" x="495.51" y="-155.8" font-family="Verdana" font-size="16.00">Surname</text>
<text text-anchor="start" x="702.77" y="-156.4" font-family="Verdana" font-size="14.00" fill="blue"> Pavardė</text>
<polygon fill="none" stroke="lightgray" points="488.51,-110.8 488.51,-144 772.78,-144 772.78,-110.8 488.51,-110.8"/>
<text text-anchor="start" x="495.51" y="-122.6" font-family="Verdana" font-size="16.00">Phone</text>
<text text-anchor="start" x="693.72" y="-123.2" font-family="Verdana" font-size="14.00" fill="blue"> Telefonas</text>
<polygon fill="none" stroke="lightgray" points="488.51,-77.6 488.51,-110.8 772.78,-110.8 772.78,-77.6 488.51,-77.6"/>
<text text-anchor="start" x="495.51" y="-89.4" font-family="Verdana" font-size="16.00">Email</text>
<text text-anchor="start" x="689.95" y="-90" font-family="Verdana" font-size="14.00" fill="blue"> El. paštas</text>
<polygon fill="none" stroke="lightgray" points="488.51,-44.4 488.51,-77.6 772.78,-77.6 772.78,-44.4 488.51,-44.4"/>
<text text-anchor="start" x="495.51" y="-56.2" font-family="Verdana" font-size="16.00">EmploymentDate</text>
<text text-anchor="start" x="644.55" y="-56.8" font-family="Verdana" font-size="14.00" fill="blue"> Įdarbinimo data</text>
<polygon fill="black" stroke="black" points="486.51,-243.6 486.51,-243.6 774.78,-243.6 774.78,-243.6 486.51,-243.6"/>
<polygon fill="none" stroke="black" stroke-width="2" points="487.51,-43.4 487.51,-303.8 773.78,-303.8 773.78,-43.4 487.51,-43.4"/>
</g>

<!-- Knyga&#45;&gt;Leidėjas -->
<g id="edge4" class="edge">
<title>Knyga:PublisherID-&gt;Leidėjas:ID</title>
<path stroke-width="1" stroke="black" fill="none" marker-end="url(#arrowhead)" d="M1352.62,-219L1355.953,-219C1359.287,-219,1365.953,-219,1376.33,-206.052C1386.707,-193.103,1400.793,-167.207,1411.17,-154.258C1421.547,-141.31,1428.213,-141.31,1431.547,-141.31L1434.88,-141.31" class="edge"/></g>

<!-- Knyga&#45;&gt;Žanras -->
<g id="edge5" class="edge">
<title>Knyga:Genre-&gt;Žanras:ID</title>
<path stroke-width="1" stroke="black" fill="none" marker-end="url(#arrowhead)" d="M1352.62,-330.74L1355.953,-330.74C1359.287,-330.74,1365.953,-330.74,1386.622,-330.717C1407.29,-330.693,1441.96,-330.647,1462.628,-330.623C1483.297,-330.6,1489.963,-330.6,1493.297,-330.6L1496.63,-330.6" class="edge"/></g>

<!-- Knyga&#45;&gt;Knyga -->
<g id="edge8" class="edge">
<title>Knyga:ParentID-&gt;Knyga:ID</title>
<path stroke-width="1" stroke="black" fill="none" marker-end="url(#arrowhead)" d="M1352.62,-379.55L1359.287,-379.55C1365.953,-379.55,1379.287,-379.55,1385.953,-386.897C1392.62,-394.243,1392.62,-408.937,1385.953,-416.283C1379.287,-423.63,1365.953,-423.63,1359.287,-423.63L1352.62,-423.63" class="edge"/></g>

<!-- Autorius -->
<g id="node6" class="node">
<rect x="1431.8299560546875" y="-664.5999755859375" width="377.8900146484375" height="193.99996948242188" fill="white"/><title>Autorius</title>
<text text-anchor="start" x="1573.02" y="-644.6" font-family="Verdana" font-weight="bold" font-size="20.00">Autorius</text>
<text text-anchor="start" x="1439.83" y="-615.2" font-family="Verdana" font-size="16.00" fill="blue">Rašytojas arba leidinio sudarytojas</text>
<text text-anchor="start" x="1730.34" y="-615.2" font-family="Verdana" font-size="16.00"> N=2000</text>
<polygon fill="none" stroke="lightgray" points="1433.83,-571.2 1433.83,-604.4 1807.72,-604.4 1807.72,-571.2 1433.83,-571.2"/>
<text text-anchor="start" x="1440.83" y="-583" font-family="Verdana" font-size="16.00">ID 🔑</text>
<text text-anchor="start" x="1619.49" y="-583.6" font-family="Verdana" font-size="14.00" fill="blue"> Autoriaus identifikatorius</text>
<polygon fill="none" stroke="lightgray" points="1433.83,-538 1433.83,-571.2 1807.72,-571.2 1807.72,-538 1433.83,-538"/>
<text text-anchor="start" x="1440.83" y="-549.8" font-family="Verdana" font-size="16.00">Name</text>
<text text-anchor="start" x="1747.42" y="-550.4" font-family="Verdana" font-size="14.00" fill="blue"> Vardas</text>
<polygon fill="none" stroke="lightgray" points="1433.83,-504.8 1433.83,-538 1807.72,-538 1807.72,-504.8 1433.83,-504.8"/>
<text text-anchor="start" x="1440.83" y="-516.6" font-family="Verdana" font-size="16.00">Surname</text>
<text text-anchor="start" x="1737.71" y="-517.2" font-family="Verdana" font-size="14.00" fill="blue"> Pavardė</text>
<polygon fill="none" stroke="lightgray" points="1433.83,-471.6 1433.83,-504.8 1807.72,-504.8 1807.72,-471.6 1433.83,-471.6"/>
<text text-anchor="start" x="1440.83" y="-483.4" font-family="Verdana" font-size="16.00">Biography</text>
<text text-anchor="start" x="1728.76" y="-484" font-family="Verdana" font-size="14.00" fill="blue"> Biografija</text>
<polygon fill="black" stroke="black" points="1431.83,-604.4 1431.83,-604.4 1809.72,-604.4 1809.72,-604.4 1431.83,-604.4"/>
<polygon fill="none" stroke="black" stroke-width="2" points="1432.83,-470.6 1432.83,-664.6 1808.72,-664.6 1808.72,-470.6 1432.83,-470.6"/>
</g>

<!-- Knyga&#45;&gt;Autorius -->
<g id="edge3" class="edge">
<title>Knyga:Author-&gt;Autorius:ID</title>
<path stroke-width="1" stroke="black" fill="none" marker-end="url(#arrowhead)" d="M1352.62,-495L1355.953,-495C1359.287,-495,1365.953,-495,1375.822,-510.412C1385.69,-525.823,1398.76,-556.647,1408.628,-572.058C1418.497,-587.47,1425.163,-587.47,1428.497,-587.47L1431.83,-587.47" class="edge"/></g>

<!-- Skaitytojas -->
<g id="node7" class="node">
<rect x="496.2900085449219" y="-851.7999877929688" width="268.7099914550781" height="260.39996337890625" fill="white"/><title>Skaitytojas</title>
<text text-anchor="start" x="567.61" y="-831.8" font-family="Verdana" font-weight="bold" font-size="20.00">Skaitytojas</text>
<text text-anchor="start" x="504.29" y="-802.4" font-family="Verdana" font-size="16.00" fill="blue">Bibliotekos lankytojas</text>
<text text-anchor="start" x="685.62" y="-802.4" font-family="Verdana" font-size="16.00"> N=1000</text>
<polygon fill="none" stroke="lightgray" points="498.29,-758.4 498.29,-791.6 763,-791.6 763,-758.4 498.29,-758.4"/>
<text text-anchor="start" x="505.29" y="-770.2" font-family="Verdana" font-size="16.00">ID 🔑</text>
<text text-anchor="start" x="570.35" y="-770.8" font-family="Verdana" font-size="14.00" fill="blue"> Skaitytojo identifikatorius</text>
<polygon fill="none" stroke="lightgray" points="498.29,-725.2 498.29,-758.4 763,-758.4 763,-725.2 498.29,-725.2"/>
<text text-anchor="start" x="505.29" y="-737" font-family="Verdana" font-size="16.00">Name</text>
<text text-anchor="start" x="702.7" y="-737.6" font-family="Verdana" font-size="14.00" fill="blue"> Vardas</text>
<polygon fill="none" stroke="lightgray" points="498.29,-692 498.29,-725.2 763,-725.2 763,-692 498.29,-692"/>
<text text-anchor="start" x="505.29" y="-703.8" font-family="Verdana" font-size="16.00">Surname</text>
<text text-anchor="start" x="692.99" y="-704.4" font-family="Verdana" font-size="14.00" fill="blue"> Pavardė</text>
<polygon fill="none" stroke="lightgray" points="498.29,-658.8 498.29,-692 763,-692 763,-658.8 498.29,-658.8"/>
<text text-anchor="start" x="505.29" y="-670.6" font-family="Verdana" font-size="16.00">Phone</text>
<text text-anchor="start" x="683.94" y="-671.2" font-family="Verdana" font-size="14.00" fill="blue"> Telefonas</text>
<polygon fill="none" stroke="lightgray" points="498.29,-625.6 498.29,-658.8 763,-658.8 763,-625.6 498.29,-625.6"/>
<text text-anchor="start" x="505.29" y="-637.4" font-family="Verdana" font-size="16.00">Email</text>
<text text-anchor="start" x="680.17" y="-638" font-family="Verdana" font-size="14.00" fill="blue"> El. paštas</text>
<polygon fill="none" stroke="lightgray" points="498.29,-592.4 498.29,-625.6 763,-625.6 763,-592.4 498.29,-592.4"/>
<text text-anchor="start" x="505.29" y="-604.2" font-family="Verdana" font-size="16.00">Registration</text>
<text text-anchor="start" x="668.88" y="-604.8" font-family="Verdana" font-size="14.00" fill="blue"> Registracija</text>
<polygon fill="black" stroke="black" points="496.29,-791.6 496.29,-791.6 765,-791.6 765,-791.6 496.29,-791.6"/>
<polygon fill="none" stroke="black" stroke-width="2" points="497.29,-591.4 497.29,-851.8 764,-851.8 764,-591.4 497.29,-591.4"/>
</g>

<!-- Išdavimas -->
<g id="node8" class="node">
<rect x="21.600000381469727" y="-593.7999877929688" width="361.0099792480469" height="260.3999938964844" fill="white"/><title>Išdavimas</title>
<text text-anchor="start" x="143.03" y="-573.8" font-family="Verdana" font-weight="bold" font-size="20.00">Išdavimas</text>
<text text-anchor="start" x="29.6" y="-544.4" font-family="Verdana" font-size="16.00" fill="blue">Knygos paskolinimas skaitytojui</text>
<text text-anchor="start" x="293.06" y="-544.4" font-family="Verdana" font-size="16.00"> N=12345</text>
<polygon fill="none" stroke="lightgray" points="23.6,-500.4 23.6,-533.6 380.61,-533.6 380.61,-500.4 23.6,-500.4"/>
<text text-anchor="start" x="30.6" y="-512.2" font-family="Verdana" font-size="16.00">ID 🔑</text>
<text text-anchor="start" x="192.09" y="-512.8" font-family="Verdana" font-size="14.00" fill="blue"> Išdavimo identifikatorius</text>
<polygon fill="none" stroke="lightgray" points="23.6,-467.2 23.6,-500.4 380.61,-500.4 380.61,-467.2 23.6,-467.2"/>
<text text-anchor="start" x="30.6" y="-479" font-family="Verdana" font-size="16.00">ClientID</text>
<text text-anchor="start" x="187.96" y="-479.6" font-family="Verdana" font-size="14.00" fill="blue"> Skaitytojo identifikatorius</text>
<polygon fill="none" stroke="lightgray" points="23.6,-434 23.6,-467.2 380.61,-467.2 380.61,-434 23.6,-434"/>
<text text-anchor="start" x="30.6" y="-445.8" font-family="Verdana" font-size="16.00">BookCopyID</text>
<text text-anchor="start" x="152.96" y="-446.4" font-family="Verdana" font-size="14.00" fill="blue"> Knygos kopijos identifikatorius</text>
<polygon fill="none" stroke="lightgray" points="23.6,-400.8 23.6,-434 380.61,-434 380.61,-400.8 23.6,-400.8"/>
<text text-anchor="start" x="30.6" y="-412.6" font-family="Verdana" font-size="16.00">LibrarianID</text>
<text text-anchor="start" x="156.53" y="-413.2" font-family="Verdana" font-size="14.00" fill="blue"> Bibliotekininko identifikatorius</text>
<polygon fill="none" stroke="lightgray" points="23.6,-367.6 23.6,-400.8 380.61,-400.8 380.61,-367.6 23.6,-367.6"/>
<text text-anchor="start" x="30.6" y="-379.4" font-family="Verdana" font-size="16.00">IssueDate</text>
<text text-anchor="start" x="265.6" y="-380" font-family="Verdana" font-size="14.00" fill="blue"> Išdavimo data</text>
<polygon fill="none" stroke="lightgray" points="23.6,-334.4 23.6,-367.6 380.61,-367.6 380.61,-334.4 23.6,-334.4"/>
<text text-anchor="start" x="30.6" y="-346.2" font-family="Verdana" font-size="16.00">ReturnDate</text>
<text text-anchor="start" x="257.53" y="-346.8" font-family="Verdana" font-size="14.00" fill="blue"> Grąžinimo data</text>
<polygon fill="black" stroke="black" points="21.6,-533.6 21.6,-533.6 382.61,-533.6 382.61,-533.6 21.6,-533.6"/>
<polygon fill="none" stroke="black" stroke-width="2" points="22.6,-333.4 22.6,-593.8 381.61,-593.8 381.61,-333.4 22.6,-333.4"/>
</g>

<!-- Išdavimas&#45;&gt;Knygos kopija -->
<g id="edge6" class="edge">
<title>Išdavimas:BookCopyID-&gt;Knygos kopija:ID</title>
<path stroke-width="1" stroke="black" fill="none" marker-end="url(#arrowhead)" d="M382.61,-450.6L385.943,-450.6C389.277,-450.6,395.943,-450.6,405.81,-450.697C415.677,-450.793,428.743,-450.987,438.61,-451.083C448.477,-451.18,455.143,-451.18,458.477,-451.18L461.81,-451.18" class="edge"/></g>

<!-- Išdavimas&#45;&gt;Bibliotekininkas -->
<g id="edge10" class="edge">
<title>Išdavimas:LibrarianID-&gt;Bibliotekininkas:ID</title>
<path stroke-width="1" stroke="black" fill="none" marker-end="url(#arrowhead)" d="M382.61,-417.4L385.943,-417.4C389.277,-417.4,395.943,-417.4,409.927,-385.822C423.91,-354.243,445.21,-291.087,459.193,-259.508C473.177,-227.93,479.843,-227.93,483.177,-227.93L486.51,-227.93" class="edge"/></g>

<!-- Išdavimas&#45;&gt;Skaitytojas -->
<g id="edge7" class="edge">
<title>Išdavimas:ClientID-&gt;Skaitytojas:ID</title>
<path stroke-width="1" stroke="black" fill="none" marker-end="url(#arrowhead)" d="M382.61,-483.8L385.943,-483.8C389.277,-483.8,395.943,-483.8,411.557,-531.883C427.17,-579.967,451.73,-676.133,467.343,-724.217C482.957,-772.3,489.623,-772.3,492.957,-772.3L496.29,-772.3" class="edge"/></g>

<!-- Rezervacija -->
<g id="node9" class="node">
<rect x="30.15999984741211" y="-884.2000122070312" width="343.8899841308594" height="227.20001220703125" fill="white"/><title>Rezervacija</title>
<text text-anchor="start" x="136.87" y="-864.2" font-family="Verdana" font-weight="bold" font-size="20.00">Rezervacija</text>
<text text-anchor="start" x="38.16" y="-834.8" font-family="Verdana" font-size="16.00" fill="blue">Išankstinis knygų užsakymas</text>
<text text-anchor="start" x="304.84" y="-834.8" font-family="Verdana" font-size="16.00"> N=777</text>
<polygon fill="none" stroke="lightgray" points="32.16,-790.8 32.16,-824 372.05,-824 372.05,-790.8 32.16,-790.8"/>
<text text-anchor="start" x="39.16" y="-802.6" font-family="Verdana" font-size="16.00">ID 🔑</text>
<text text-anchor="start" x="162.46" y="-803.2" font-family="Verdana" font-size="14.00" fill="blue"> Rezervacijos identifikatorius</text>
<polygon fill="none" stroke="lightgray" points="32.16,-757.6 32.16,-790.8 372.05,-790.8 372.05,-757.6 32.16,-757.6"/>
<text text-anchor="start" x="39.16" y="-769.4" font-family="Verdana" font-size="16.00">ClientID</text>
<text text-anchor="start" x="179.4" y="-770" font-family="Verdana" font-size="14.00" fill="blue"> Skaitytojo identifikatorius</text>
<polygon fill="none" stroke="lightgray" points="32.16,-724.4 32.16,-757.6 372.05,-757.6 372.05,-724.4 32.16,-724.4"/>
<text text-anchor="start" x="39.16" y="-736.2" font-family="Verdana" font-size="16.00">BookCopyID</text>
<text text-anchor="start" x="144.4" y="-736.8" font-family="Verdana" font-size="14.00" fill="blue"> Knygos kopijos identifikatorius</text>
<polygon fill="none" stroke="lightgray" points="32.16,-691.2 32.16,-724.4 372.05,-724.4 372.05,-691.2 32.16,-691.2"/>
<text text-anchor="start" x="39.16" y="-703" font-family="Verdana" font-size="16.00">ReservationDate</text>
<text text-anchor="start" x="235.96" y="-703.6" font-family="Verdana" font-size="14.00" fill="blue"> Rezervacijos data</text>
<polygon fill="none" stroke="lightgray" points="32.16,-658 32.16,-691.2 372.05,-691.2 372.05,-658 32.16,-658"/>
<text text-anchor="start" x="39.16" y="-669.8" font-family="Verdana" font-size="16.00">ExpirationDate</text>
<text text-anchor="start" x="261.81" y="-670.4" font-family="Verdana" font-size="14.00" fill="blue"> Pabaigos data</text>
<polygon fill="black" stroke="black" points="30.16,-824 30.16,-824 374.05,-824 374.05,-824 30.16,-824"/>
<polygon fill="none" stroke="black" stroke-width="2" points="31.16,-657 31.16,-884.2 373.05,-884.2 373.05,-657 31.16,-657"/>
</g>

<!-- Rezervacija&#45;&gt;Knygos kopija -->
<g id="edge9" class="edge">
<title>Rezervacija:BookCopyID-&gt;Knygos kopija:ID</title>
<path stroke-width="1" stroke="black" fill="none" marker-end="url(#arrowhead)" d="M374.05,-741L377.383,-741C380.717,-741,387.383,-741,398.677,-692.83C409.97,-644.66,425.89,-548.32,437.183,-500.15C448.477,-451.98,455.143,-451.98,458.477,-451.98L461.81,-451.98" class="edge"/></g>

<!-- Rezervacija&#45;&gt;Skaitytojas -->
<g id="edge1" class="edge">
<title>Rezervacija:ClientID-&gt;Skaitytojas:ID</title>
<path stroke-width="1" stroke="black" fill="none" marker-end="url(#arrowhead)" d="M374.05,-774.2L377.383,-774.2C380.717,-774.2,387.383,-774.2,404.423,-774.332C421.463,-774.463,448.877,-774.727,465.917,-774.858C482.957,-774.99,489.623,-774.99,492.957,-774.99L496.29,-774.99" class="edge"/></g>

</g>
<defs><marker id="arrowhead" viewBox="0 -10 20 20" refX="20" refY="0" markerWidth="12" markerHeight="12" orient="auto" markerUnits="userSpaceOnUse"><path d="M0,-10L20,0L0,10" fill="black"/></marker></defs>
</svg>